<?xml version="1.0" encoding="UTF-8"?>
<svg version="1.1" xmlns="http://www.w3.org/2000/svg" width="512" height="512">
<path d="M0 0 C5.26559885 5.12589929 7.20225145 9.03253212 7.4140625 16.48828125 C7.21390432 21.2976375 6.78650408 24.86238048 3.9140625 28.86328125 C3.2540625 29.41371094 2.5940625 29.96414062 1.9140625 30.53125 C-0.73281774 33.61755371 -1.20973493 36.71609115 -1.8359375 40.61328125 C-1.96097656 41.31066406 -2.08601563 42.00804687 -2.21484375 42.7265625 C-2.5193261 44.43634801 -2.80457685 46.1495391 -3.0859375 47.86328125 C-1.62462402 48.00576294 -1.62462402 48.00576294 -0.13378906 48.15112305 C87.00077679 56.73196057 87.00077679 56.73196057 105.8125 76.8984375 C108.76327131 81.06132862 110.71432216 85.52649245 112.7890625 90.17578125 C113.25159424 91.19945801 113.71412598 92.22313477 114.19067383 93.27783203 C115.77626041 96.80141568 117.34697057 100.33145046 118.9140625 103.86328125 C119.37017914 104.8892038 119.37017914 104.8892038 119.83551025 105.93585205 C121.78016016 110.31047628 123.71775552 114.68813817 125.64678955 119.06967163 C126.28308054 120.5149019 126.9202465 121.95974727 127.55828857 123.40420532 C128.45557401 125.4383353 129.34772601 127.47463485 130.23828125 129.51171875 C130.75479248 130.68911621 131.27130371 131.86651367 131.8034668 133.07958984 C132.9140625 135.86328125 132.9140625 135.86328125 132.9140625 137.86328125 C133.48511719 137.79109375 134.05617188 137.71890625 134.64453125 137.64453125 C154.42517204 135.38029256 175.34208679 136.79061092 191.9140625 148.86328125 C198.35485716 154.11552856 203.92507564 160.35960008 205.21240234 168.82519531 C205.90403431 175.76050711 206.20251173 182.89284665 202.5390625 189.05078125 C192.79980863 200.810533 175.7256365 203.68951117 161.32063293 205.1210022 C158.38229658 205.39350092 155.44334554 205.65764325 152.50390625 205.91796875 C151.48421753 206.00941162 150.46452881 206.10085449 149.41394043 206.19506836 C146.91409097 206.41906658 144.41413324 206.64176885 141.9140625 206.86328125 C141.80210541 207.98222275 141.69014832 209.10116425 141.57479858 210.25401306 C132.02553532 305.63281939 132.02553532 305.63281939 128.4765625 334.61328125 C128.36358826 335.55178925 128.25061401 336.49029724 128.13421631 337.45724487 C123.81079156 373.11970199 123.81079156 373.11970199 111.3515625 383.1484375 C101.21592703 390.27911694 90.55745847 394.80253663 78.9140625 398.86328125 C78.76372559 400.22477295 78.76372559 400.22477295 78.61035156 401.61376953 C78.22815609 405.00369603 77.83137233 408.3912642 77.42480469 411.77832031 C77.25232354 413.24021111 77.08556274 414.70278929 76.92480469 416.16601562 C76.69172257 418.27814248 76.43767767 420.38688188 76.1796875 422.49609375 C76.03305664 423.76340332 75.88642578 425.03071289 75.73535156 426.33642578 C74.80787263 430.31929163 73.48933501 432.70240359 70.9140625 435.86328125 C68.06621514 437.61783996 65.91490136 438.1172486 62.59204102 438.13793945 C61.74758926 438.14747147 60.90313751 438.15700348 60.03309631 438.16682434 C58.67673317 438.16545723 58.67673317 438.16545723 57.29296875 438.1640625 C56.35605698 438.16834763 55.4191452 438.17263275 54.45384216 438.17704773 C52.47436327 438.18278505 50.4948633 438.1832957 48.51538086 438.17895508 C45.49100686 438.17579634 42.46761239 438.19925753 39.44335938 438.22460938 C37.5182304 438.22688259 35.5930988 438.22758576 33.66796875 438.2265625 C32.76575089 438.23577225 31.86353302 438.24498199 30.93397522 438.25447083 C26.10523668 438.21898585 22.82325466 438.02338664 18.9140625 434.86328125 C15.83555155 430.93385603 15.29932977 427.25872796 14.7265625 422.36328125 C14.48873047 420.4296875 14.48873047 420.4296875 14.24609375 418.45703125 C13.97769932 415.55205621 13.88752134 412.77344187 13.9140625 409.86328125 C13.31948242 409.92386719 12.72490234 409.98445313 12.11230469 410.046875 C-29.97239632 414.07708578 -73.0707964 413.26620574 -115.0859375 408.86328125 C-115.14434814 409.95737305 -115.20275879 411.05146484 -115.26293945 412.17871094 C-115.34563525 413.63087253 -115.42857455 415.08302026 -115.51171875 416.53515625 C-115.54946411 417.25429199 -115.58720947 417.97342773 -115.62609863 418.71435547 C-116.26765647 429.66778198 -116.26765647 429.66778198 -119.0859375 433.86328125 C-124.23254404 438.21421548 -128.3031301 438.44230799 -134.90234375 438.359375 C-135.83642563 438.36083023 -136.77050751 438.36228546 -137.7328949 438.36378479 C-139.70046113 438.36213022 -141.6680409 438.35061868 -143.63549805 438.32983398 C-146.64232444 438.3008402 -149.64739026 438.30924233 -152.65429688 438.32226562 C-154.57032104 438.31602874 -156.48633966 438.3076382 -158.40234375 438.296875 C-159.74625938 438.30127846 -159.74625938 438.30127846 -161.11732483 438.30577087 C-165.88028671 438.23394737 -169.31640239 438.09538469 -173.0859375 434.86328125 C-176.15913333 430.93929179 -176.67206635 427.33610303 -177.21875 422.4453125 C-177.30091766 421.74685715 -177.38308533 421.04840179 -177.46774292 420.32878113 C-177.7266576 418.11222906 -177.96954757 415.89430406 -178.2109375 413.67578125 C-178.46229353 411.44697894 -178.71700434 409.21862537 -178.97555542 406.99064636 C-179.20784424 404.97733569 -179.43057456 402.96292907 -179.65283203 400.94848633 C-179.90553412 397.9586469 -179.90553412 397.9586469 -181.0859375 395.86328125 C-182.79367631 395.06019513 -182.79367631 395.06019513 -184.8828125 394.41796875 C-185.67091309 394.14960205 -186.45901367 393.88123535 -187.27099609 393.60473633 C-188.11742676 393.31880615 -188.96385742 393.03287598 -189.8359375 392.73828125 C-201.32424604 388.6941809 -214.14592074 383.09515547 -221.2734375 372.73828125 C-221.76199219 372.05507813 -222.25054687 371.371875 -222.75390625 370.66796875 C-226.70125691 362.35653834 -226.82416752 352.23174062 -227.78173828 343.20556641 C-227.93928368 341.75243034 -228.09722328 340.29933697 -228.25552368 338.84628296 C-228.68102246 334.92981493 -229.10089579 331.01276293 -229.51959085 327.09556246 C-229.95965445 322.98650824 -230.4045718 318.87797931 -230.84884644 314.76937866 C-231.59323811 307.87864611 -232.33414259 300.98754582 -233.07275391 294.09619141 C-233.92652533 286.130609 -234.78497006 278.16554136 -235.64608777 270.20074999 C-236.56423909 261.70807671 -237.47913475 253.21505507 -238.39299917 244.72191954 C-238.65620653 242.27774746 -238.92000724 239.83364001 -239.18393326 237.38954544 C-239.59801687 233.55330997 -240.00990898 229.71684526 -240.42010117 225.8801918 C-240.57094446 224.47240905 -240.72250968 223.06470343 -240.87484741 221.6570816 C-241.08253436 219.73682078 -241.2873292 217.81624782 -241.49197388 215.8956604 C-241.60736574 214.82093287 -241.72275761 213.74620533 -241.84164619 212.63891029 C-242.0859375 209.86328125 -242.0859375 209.86328125 -242.0859375 205.86328125 C-242.74335938 205.88648438 -243.40078125 205.9096875 -244.078125 205.93359375 C-261.67991681 206.26750308 -285.77094668 205.16698284 -299.40234375 192.75390625 C-305.04855478 186.73397464 -307.60222981 181.59801987 -307.40625 173.296875 C-305.95279453 162.25415845 -298.91144752 153.71958362 -290.5859375 146.86328125 C-277.7765155 137.52107122 -262.12380487 136.52249159 -246.8359375 136.73828125 C-245.60230469 136.74730469 -244.36867187 136.75632813 -243.09765625 136.765625 C-240.09353726 136.78891274 -237.08984807 136.82161369 -234.0859375 136.86328125 C-233.59734253 135.72789917 -233.59734253 135.72789917 -233.09887695 134.56958008 C-230.04135658 127.47163161 -226.96596922 120.38186459 -223.87521362 113.29833984 C-222.05114995 109.10936643 -220.25628258 104.90955566 -218.48796082 100.69676208 C-217.38486309 98.07912267 -216.26282145 95.46986611 -215.13705444 92.86190796 C-214.3556107 91.0342923 -213.59800633 89.19654146 -212.84106445 87.35864258 C-207.26691545 74.54111491 -198.72455998 68.70755153 -186.10839844 63.63623047 C-166.4443514 56.12097541 -145.25539887 53.06910287 -124.4609375 50.55078125 C-123.74429932 50.46351776 -123.02766113 50.37625427 -122.28930664 50.28634644 C-115.53504683 49.47409951 -108.90369445 48.76594687 -102.0859375 48.86328125 C-103.3825322 40.02596472 -104.46839071 33.29121352 -111.0859375 26.86328125 C-113.82023114 22.26469649 -113.71388004 17.06169165 -113.0859375 11.86328125 C-110.8859446 4.51240677 -105.82003312 -0.97705457 -99.26953125 -4.765625 C-71.30914621 -18.45420614 -25.13863428 -21.34498584 0 0 Z " fill="#000000" transform="translate(307.0859375,44.13671875)"/>
<path d="M0 0 C5.41237803 0.83605839 10.80628526 1.72581629 16.16015625 2.8828125 C41.05200598 8.2338745 66.32285281 10.71491596 91.72723389 11.89257812 C93.31454128 11.96760192 94.90165072 12.0468815 96.48858643 12.12939453 C117.09924971 13.18752605 137.70665451 13.15444885 158.33837891 13.13037109 C163.25029911 13.12469011 168.16216499 13.12806295 173.07408333 13.13379478 C202.91403689 13.1636547 232.61678646 12.73764891 262.38134766 10.38037109 C265.66107987 10.12215945 268.94170853 9.87894288 272.22265625 9.63671875 C288.94382021 8.36403081 305.45962272 6.35873881 321.875 2.875 C323.49722027 2.53821576 325.11961196 2.20225594 326.7421875 1.8671875 C327.47147461 1.71604492 328.20076172 1.56490234 328.95214844 1.40917969 C331.62478425 0.87516233 334.30794157 0.42415069 337 0 C337.422036 10.62017806 336.15604257 21.12256826 335.1015625 31.671875 C334.90418058 33.68284334 334.7071968 35.69385079 334.5105896 37.70489502 C334.09857676 41.90776322 333.68301118 46.11025922 333.26464844 50.3125 C332.73252548 55.65848422 332.207345 61.00512072 331.68462563 66.35203171 C331.27836017 70.5030404 330.86932369 74.65377232 330.45939255 78.80442047 C330.26504785 80.7736331 330.07130831 82.74290557 329.87822342 84.71224213 C328.88406056 94.82899905 327.82094512 104.91796597 326.40948486 114.98580933 C325.84967686 119.10651857 325.47546778 123.23233686 325.125 127.375 C324.31854997 136.22225614 323.35805898 145.05049515 322.31903076 153.87310791 C322.15045083 155.31187322 321.98455671 156.75095625 321.82159424 158.19036865 C319.07067427 182.3963401 319.07067427 182.3963401 313.75 187.875 C307.85355235 192.29197533 300.91882368 194.67896266 294 197 C293.35901367 197.21897949 292.71802734 197.43795898 292.05761719 197.66357422 C276.84050377 202.72190507 260.8524369 204.93968357 245 207 C243.06447266 207.25209229 243.06447266 207.25209229 241.08984375 207.50927734 C190.65893168 213.59859543 136.11590697 213.04999307 86 205 C85.32994934 204.89389404 84.65989868 204.78778809 83.96954346 204.6784668 C65.20810244 201.67758363 44.08051835 197.69049377 27 189 C25.98244629 188.52675293 25.98244629 188.52675293 24.94433594 188.04394531 C21.21509588 185.89782564 19.35280556 184.16266963 18.08374023 179.98046875 C17.48790321 175.90227091 17.15185171 171.85952784 16.875 167.75 C16.73987589 166.16159811 16.60057674 164.57354691 16.45751953 162.98583984 C16.13689523 159.3968995 15.83403423 155.80695495 15.5390625 152.21582031 C14.6176854 141.29440092 13.42193338 130.39811655 12.27886963 119.49816895 C11.88168771 115.68913611 11.49210062 111.87940336 11.10498047 108.06933594 C10.02199131 97.45037539 8.90642829 86.85709656 7.42919922 76.28515625 C6.6434277 70.27074124 6.15243921 64.22904152 5.625 58.1875 C4.4289921 44.78562203 2.93452815 31.43230663 1.27001953 18.08081055 C1.18553055 17.39098083 1.10104156 16.70115112 1.01399231 15.99041748 C0.78584567 14.1291875 0.55289744 12.26854785 0.31958008 10.40795898 C-0.00768937 6.91800156 -0.05501116 3.50312153 0 0 Z " fill="#B4D1BA" transform="translate(88,220)"/>
<path d="M0 0 C3.16612625 2.6382426 4.36940478 5.71923305 5.9609375 9.46875 C6.23338287 10.1042981 6.50582825 10.73984619 6.78652954 11.39465332 C7.65616539 13.426942 8.51589315 15.46324106 9.375 17.5 C10.22639471 19.50111659 11.07983748 21.50134523 11.93414307 23.5012207 C12.49135212 24.80746686 13.04650596 26.11459172 13.59954834 27.42260742 C15.66984633 32.30160814 17.89943919 37.08944387 20.23681641 41.84570312 C21 44 21 44 20 47 C-6.89928025 51.69448858 -33.71916286 55.36814867 -61 57 C-61.7374646 57.04489563 -62.4749292 57.08979126 -63.23474121 57.13604736 C-112.96887471 60.13144254 -163.12822409 60.30618436 -212.85693359 57.13604736 C-214.90960544 57.00573848 -216.96252318 56.88065025 -219.015625 56.75732422 C-227.01945918 56.26850084 -235.01000259 55.67717759 -243 55 C-244.19802246 54.90106445 -245.39604492 54.80212891 -246.63037109 54.70019531 C-260.79576574 53.50332718 -274.81129626 51.88951029 -288.8125 49.4375 C-290.02357422 49.22762451 -291.23464844 49.01774902 -292.48242188 48.80151367 C-293.58779297 48.5976001 -294.69316406 48.39368652 -295.83203125 48.18359375 C-296.80889893 48.00368896 -297.7857666 47.82378418 -298.79223633 47.63842773 C-299.52079834 47.42774658 -300.24936035 47.21706543 -301 47 C-302 45 -302 45 -301.45036316 43.22315979 C-301.13440689 42.50828903 -300.81845062 41.79341827 -300.49291992 41.05688477 C-300.13892624 40.24586807 -299.78493256 39.43485138 -299.42021179 38.59925842 C-299.02759659 37.72216721 -298.63498138 36.84507599 -298.23046875 35.94140625 C-297.83426834 35.04131332 -297.43806793 34.1412204 -297.02986145 33.21385193 C-296.18854303 31.30655018 -295.34343351 29.40091697 -294.49487305 27.49682617 C-293.1959873 24.58154927 -291.90851858 21.66144725 -290.62304688 18.74023438 C-289.80535509 16.89032977 -288.98701687 15.04071074 -288.16796875 13.19140625 C-287.78142624 12.31633926 -287.39488373 11.44127228 -286.99662781 10.53968811 C-286.63317764 9.72551926 -286.26972748 8.9113504 -285.89526367 8.07250977 C-285.57692062 7.35684341 -285.25857758 6.64117706 -284.93058777 5.90382385 C-284 4 -284 4 -282 1 C-280.24894115 1.26390071 -278.4992181 1.53666176 -276.75 1.8125 C-275.77546875 1.96332031 -274.8009375 2.11414063 -273.796875 2.26953125 C-270.63066234 2.87866887 -267.5865296 3.62281418 -264.47265625 4.4453125 C-223.92334329 14.69696562 -179.27322216 12.18032987 -137.78555679 12.24497986 C-135.0424425 12.24992351 -132.29934954 12.25783713 -129.5562439 12.26623535 C-108.38230981 12.32196124 -87.37829583 11.90427993 -66.26394653 10.24859619 C-61.92527921 9.91814465 -57.58375951 9.64488556 -53.24084473 9.37690735 C-42.89178523 8.69292475 -32.72306154 7.30110277 -22.5 5.5625 C-20.68314697 5.25445435 -20.68314697 5.25445435 -18.82958984 4.94018555 C-12.31365208 3.77418044 -6.21675192 2.27814734 0 0 Z " fill="#797E88" transform="translate(397,150)"/>
<path d="M0 0 C0.92743515 -0.00525696 1.8548703 -0.01051392 2.81040955 -0.01593018 C5.87125572 -0.02911639 8.93158031 -0.02039611 11.99243164 -0.01025391 C14.12325643 -0.01227521 16.25408054 -0.01518711 18.38490295 -0.01895142 C22.84944244 -0.02337305 27.31380178 -0.01694939 31.77832031 -0.00292969 C37.49596744 0.01415157 43.21319175 0.00432652 48.93082333 -0.01364708 C53.3309293 -0.02449801 57.73093538 -0.02103235 62.13104439 -0.0132637 C64.23893852 -0.01126479 66.34684178 -0.01371012 68.45472527 -0.02070236 C71.40365419 -0.02833708 74.35190287 -0.01668353 77.30078125 0 C78.16902527 -0.00607269 79.03726929 -0.01214539 79.93182373 -0.0184021 C84.92011655 0.03377312 88.43545131 0.54661646 92.71508789 3.38818359 C95.3088571 6.27318851 96.09131676 8.10371161 96.10949707 11.96688843 C96.12084686 12.88085892 96.13219666 13.79482941 96.14389038 14.73649597 C96.14095978 15.7319191 96.13802917 16.72734222 96.13500977 17.75292969 C96.14347931 18.80701523 96.15194885 19.86110077 96.16067505 20.9471283 C96.18409477 24.43541494 96.18506593 27.92326173 96.18383789 31.41162109 C96.19093685 33.83533913 96.19863545 36.25905547 96.20690918 38.68276978 C96.22036575 43.76528595 96.22191759 48.84764676 96.21606445 53.93017578 C96.21016985 60.44279332 96.24074564 66.95466501 96.28118134 73.46713829 C96.30703443 78.47374487 96.30993782 83.48017135 96.30628967 88.48683548 C96.3079834 90.88781228 96.31765002 93.28879718 96.33543396 95.68970871 C96.35757331 99.04852902 96.34794545 102.40583322 96.33032227 105.76464844 C96.34358551 106.7560231 96.35684875 107.74739777 96.37051392 108.76881409 C96.31683951 113.17245425 96.21246846 116.3843615 93.42663574 119.92715454 C89.93485143 123.09633433 87.40388802 124.63257324 82.6678772 124.65560913 C81.87170486 124.6641391 81.07553253 124.67266907 80.25523376 124.68145752 C78.95846458 124.68009796 78.95846458 124.68009796 77.63549805 124.67871094 C76.71796249 124.68542816 75.80042694 124.69214539 74.85508728 124.69906616 C71.82138659 124.71806667 68.78790689 124.72197139 65.75415039 124.72412109 C63.6443167 124.73054754 61.53448391 124.73727578 59.4246521 124.74429321 C55.00126072 124.75627108 50.57794747 124.7599735 46.15454102 124.75878906 C40.48949165 124.75858584 34.82494372 124.78588986 29.1600132 124.82033348 C24.80194808 124.8425827 20.44400401 124.84662721 16.08588791 124.84556961 C13.99751431 124.84792847 11.90913752 124.85676801 9.82081985 124.87223434 C6.89801271 124.89185414 3.97629184 124.88607184 1.0534668 124.87402344 C-0.23722969 124.89088196 -0.23722969 124.89088196 -1.55400085 124.90808105 C-6.92415715 124.85189567 -10.09541256 124.06005362 -14.28491211 120.38818359 C-18.25846721 115.86745793 -17.70866964 110.78743122 -17.6730957 105.07763672 C-17.67835266 104.041306 -17.68360962 103.00497528 -17.68902588 101.9372406 C-17.70222057 98.51448457 -17.69348937 95.09219429 -17.68334961 91.66943359 C-17.68537049 89.28959056 -17.68828204 86.90974814 -17.69204712 84.52990723 C-17.69646976 79.54331565 -17.69004114 74.55688533 -17.67602539 69.5703125 C-17.65893376 63.17773858 -17.66877523 56.78554254 -17.68674278 50.39298248 C-17.69758208 45.47907666 -17.69413355 40.56526045 -17.68635941 35.65135193 C-17.68435782 33.2942246 -17.68681522 30.93708915 -17.69379807 28.57997131 C-17.7014147 25.28600503 -17.68980466 21.99265113 -17.6730957 18.69873047 C-17.6791684 17.72403305 -17.68524109 16.74933563 -17.6914978 15.74510193 C-17.61106611 7.18836719 -17.61106611 7.18836719 -14.28491211 3.38818359 C-9.89435513 -0.3377984 -5.48022286 -0.03824075 0 0 Z " fill="#010101" transform="translate(217.284912109375,289.61181640625)"/>
<path d="M0 0 C20.79 0 41.58 0 63 0 C63 24.09 63 48.18 63 73 C42.21 73 21.42 73 0 73 C0 48.91 0 24.82 0 0 Z " fill="#BEBFC4" transform="translate(225,315)"/>
<path d="M0 0 C0.60328125 0.60199219 1.2065625 1.20398438 1.828125 1.82421875 C12.02079762 11.17388837 24.35334334 11.8416268 37.578125 11.76171875 C39.49818359 11.77332031 39.49818359 11.77332031 41.45703125 11.78515625 C54.39076009 11.75840604 65.40400055 8.98360586 76.078125 1.51171875 C76.738125 1.51171875 77.398125 1.51171875 78.078125 1.51171875 C78.738125 0.19171875 79.398125 -1.12828125 80.078125 -2.48828125 C96.45520798 -1.79072812 112.47160745 -0.20762477 128.640625 2.44921875 C129.42295502 2.57637268 130.20528503 2.70352661 131.01132202 2.83453369 C151.50234353 6.19295864 151.50234353 6.19295864 158.078125 8.51171875 C158.408125 9.17171875 158.738125 9.83171875 159.078125 10.51171875 C145.9117071 12.55628364 132.72467874 14.0049901 119.453125 15.13671875 C118.39937683 15.22996933 118.39937683 15.22996933 117.32434082 15.32510376 C93.03394137 17.45583435 68.63489348 17.71711613 44.265625 17.69921875 C42.34277176 17.69930939 42.34277176 17.69930939 40.381073 17.69940186 C22.61867968 17.6876048 4.88690446 17.40323282 -12.859375 16.63671875 C-13.79004791 16.59751312 -14.72072083 16.5583075 -15.67959595 16.51791382 C-33.10589975 15.76043465 -50.45091151 14.25729877 -67.734375 11.88671875 C-68.73662109 11.75265625 -69.73886719 11.61859375 -70.77148438 11.48046875 C-73.15544943 11.16108587 -75.53888251 10.83826365 -77.921875 10.51171875 C-76.921875 8.51171875 -76.921875 8.51171875 -75.21728516 7.88916016 C-74.47269043 7.71562012 -73.7280957 7.54208008 -72.9609375 7.36328125 C-72.11072021 7.16452393 -71.26050293 6.9657666 -70.38452148 6.76098633 C-69.44809814 6.55497803 -68.5116748 6.34896973 -67.546875 6.13671875 C-66.57242432 5.91975342 -65.59797363 5.70278809 -64.59399414 5.47924805 C-48.588694 2.03449474 -32.32932991 -0.1591316 -16.046875 -1.80078125 C-15.19150146 -1.88932373 -14.33612793 -1.97786621 -13.45483398 -2.0690918 C-3.81300571 -2.95275442 -3.81300571 -2.95275442 0 0 Z " fill="#BBBCC1" transform="translate(215.921875,120.48828125)"/>
<path d="M0 0 C1.99919042 -0.00436504 3.99822188 -0.04137983 5.99707031 -0.07861328 C7.26808594 -0.08248047 8.53910156 -0.08634766 9.84863281 -0.09033203 C11.00669434 -0.0985498 12.16475586 -0.10676758 13.35791016 -0.11523438 C18.12283613 0.59060176 21.20514984 2.8653727 24.48535156 6.31201172 C26.61902375 10.12369051 26.26102515 14.1442922 25.63769531 18.37060547 C23.51817624 22.00406673 21.51892208 23.86011634 17.63769531 25.37060547 C13.21999269 25.7473711 8.79759818 25.69989956 4.3659668 25.6862793 C2.21058516 25.68312069 0.05657918 25.70658974 -2.09863281 25.73193359 C-3.4768863 25.73420703 -4.85514346 25.73490988 -6.23339844 25.73388672 C-7.48048584 25.73686768 -8.72757324 25.73984863 -10.01245117 25.74291992 C-13.63277725 25.3405442 -15.48175151 24.5568931 -18.36230469 22.37060547 C-21.0005481 18.4587273 -21.96243627 14.98403974 -21.78417969 10.33154297 C-20.89674045 6.20659392 -18.09663573 3.49434446 -14.59814453 1.22753906 C-9.99520694 -0.53663553 -4.8700675 -0.00119189 0 0 Z " fill="#010101" transform="translate(254.3623046875,322.62939453125)"/>
<path d="M0 0 C2.09184223 0.00315256 4.18225913 -0.02027836 6.27392578 -0.0456543 C7.61116359 -0.04792827 8.94840518 -0.04863033 10.28564453 -0.04760742 C12.10298096 -0.05207886 12.10298096 -0.05207886 13.95703125 -0.05664062 C18.64436347 0.47640797 21.17496899 2.31676623 24.54345703 5.50317383 C26.73655328 9.15833424 26.88338593 12.20778818 26.23095703 16.31567383 C24.91823761 20.18090323 24.04473544 21.81983194 20.54516602 23.95214844 C15.23486189 26.1369034 10.02551144 25.87362546 4.34545898 25.87158203 C2.30083188 25.87815014 0.2610559 25.93271006 -1.78271484 25.98950195 C-12.81706678 26.038592 -12.81706678 26.038592 -17.14794922 22.46801758 C-20.58534969 18.92914404 -21.16960434 15.27913877 -21.12451172 10.38208008 C-20.4861957 6.67142981 -18.42605331 4.91089323 -15.76904297 2.31567383 C-11.00445873 -0.86071566 -5.56987914 -0.01760557 0 0 Z " fill="#010101" transform="translate(253.76904296875,354.684326171875)"/>
<path d="M0 0 C2.083125 0.165 4.16625 0.33 6.3125 0.5 C12.58385348 0.94638489 18.83838894 1.11037572 25.125 1.125 C25.92977783 1.12951172 26.73455566 1.13402344 27.5637207 1.13867188 C31.52966558 1.12865159 35.11634627 0.88233278 39 0 C41.33301986 -0.03824623 43.66711508 -0.04574284 46 0 C45.88544319 1.91731918 45.75793742 3.8338675 45.625 5.75 C45.55539062 6.81734375 45.48578125 7.8846875 45.4140625 8.984375 C45.02289975 11.83322066 44.56261612 13.61174628 43 16 C33.73468716 20.89002622 18.44174202 20.63181297 8.46875 18.10546875 C5.75 17 5.75 17 2 15 C1.34 10.05 0.68 5.1 0 0 Z " fill="#777C87" transform="translate(231,89)"/>
<path d="M0 0 C0.66 5.61 1.32 11.22 2 17 C-10.65877417 17.21825473 -22.15951684 17.00943518 -34 12 C-33.14228981 8.2475179 -31.64818308 6.43272396 -28.5625 4.3125 C-19.76184758 -0.72096667 -9.84162382 -0.21164782 0 0 Z " fill="#5D637C" transform="translate(61,207)"/>
<path d="M0 0 C11.8231313 -0.43789375 23.53641334 -0.1847236 33 8 C33.64453125 10.125 33.64453125 10.125 34 12 C22.43993046 16.3105344 11.28171598 17.26992782 -1 17 C-0.67 11.39 -0.34 5.78 0 0 Z " fill="#5D637C" transform="translate(452,207)"/>
<path d="M0 0 C0 0.66 0 1.32 0 2 C-9.1842899 4.85205306 -18.0086671 5.30200489 -27.5625 5.3125 C-28.68503174 5.31765625 -29.80756348 5.3228125 -30.96411133 5.328125 C-39.69079787 5.25694381 -48.6661582 4.77794727 -57 2 C-57 1.34 -57 0.68 -57 0 C-39.02919054 -5.73536472 -18.14396622 -4.14155751 0 0 Z " fill="#BBBCC1" transform="translate(283,60)"/>
<path d="M0 0 C4.29 0.66 8.58 1.32 13 2 C12.67 4.97 12.34 7.94 12 11 C8.37 11 4.74 11 1 11 C0.67 7.37 0.34 3.74 0 0 Z " fill="#585D75" transform="translate(154,446)"/>
<path d="M0 0 C0 2.64 0 5.28 0 8 C-3.63 8 -7.26 8 -11 8 C-11 5.69 -11 3.38 -11 1 C-7.32589215 -0.17571451 -3.83070817 -0.07366746 0 0 Z " fill="#5A5F78" transform="translate(358,449)"/>
</svg>
