<svg version="1.2" xmlns="http://www.w3.org/2000/svg" viewBox="0 0 16 16" width="16" height="16"><style>.a{fill:#b4d1ba}.b{fill:#797e88}.c{fill:#010101}.d{fill:#bebfc4}.e{fill:#bbbcc1}.f{fill:#777c87}.g{fill:#5d637c}.h{fill:#585d75}.i{fill:#5a5f78}</style><path  d="m9.6 1.4c0.2 0.1 0.2 0.3 0.2 0.5 0 0.1 0 0.3-0.1 0.4q0 0 0 0c-0.1 0.1-0.1 0.2-0.2 0.3q0 0.1 0 0.1 0 0.1 0 0.2c0 0 0 0 0.1 0 2.7 0.3 2.7 0.3 3.3 0.9q0.1 0.2 0.2 0.4 0 0 0.1 0.1 0 0.2 0.1 0.3c0 0.1 0 0.1 0 0.1q0.1 0.2 0.2 0.4 0.1 0.1 0.1 0.1 0 0.1 0.1 0.2 0 0.1 0 0.1c0 0.1 0 0.1 0 0.2q0.1 0 0.1 0c0.6-0.1 1.3 0 1.8 0.3 0.2 0.2 0.4 0.4 0.4 0.7 0 0.2 0 0.4-0.1 0.6-0.3 0.4-0.8 0.4-1.3 0.5q-0.1 0-0.2 0-0.1 0-0.1 0-0.2 0-0.3 0 0 0.1 0 0.1c-0.3 3-0.3 3-0.4 3.9q0 0.1 0 0.1c-0.1 1.1-0.1 1.1-0.5 1.5-0.3 0.2-0.7 0.3-1 0.4 0 0.1 0 0.1 0 0.1q-0.1 0.2-0.1 0.3 0 0.1 0 0.2 0 0.1 0 0.2 0 0 0 0.1c-0.1 0.1-0.1 0.2-0.2 0.3q-0.1 0.1-0.2 0.1-0.1 0-0.1 0c-0.1 0-0.1 0-0.1 0q-0.1 0-0.1 0-0.1 0-0.2 0-0.1 0-0.3 0-0.1 0-0.2 0 0 0 0 0c-0.2 0-0.3 0-0.4-0.1-0.1-0.2-0.1-0.3-0.1-0.4-0.1-0.1-0.1-0.1-0.1-0.1q0-0.2 0-0.3 0 0 0 0c-1.3 0.1-2.7 0.1-4 0q0 0 0 0.1 0 0 0 0.1 0 0 0 0.1c0 0.3 0 0.3-0.1 0.4-0.2 0.2-0.3 0.2-0.5 0.2q-0.1 0-0.1 0-0.1 0-0.2 0-0.1 0-0.3 0-0.1 0-0.2 0c0 0 0 0 0 0-0.2 0-0.3 0-0.4-0.1-0.1-0.2-0.1-0.3-0.1-0.4q0-0.1-0.1-0.1 0-0.1 0-0.2 0-0.1 0-0.2 0-0.1 0-0.2c0-0.1 0-0.1-0.1-0.1 0-0.1 0-0.1-0.1-0.1q0 0-0.1 0 0 0 0 0c-0.4-0.2-0.8-0.3-1-0.7q0 0-0.1 0c-0.1-0.3-0.1-0.6-0.1-0.9q0-0.1 0-0.1-0.1-0.2-0.1-0.4 0-0.2 0-0.4-0.1-0.3-0.1-0.6 0-0.4-0.1-0.8 0-0.4-0.1-0.8 0-0.1 0-0.2 0-0.2 0-0.4 0 0 0-0.1 0-0.1-0.1-0.2 0 0 0-0.1c0-0.1 0-0.1 0-0.2q0 0 0 0c-0.6 0-1.3 0-1.8-0.4-0.1-0.2-0.2-0.3-0.2-0.6 0-0.3 0.3-0.6 0.5-0.8 0.4-0.3 0.9-0.4 1.4-0.3q0 0 0.1 0 0.1 0 0.3 0c0-0.1 0-0.1 0-0.1q0.2-0.3 0.3-0.7 0.1-0.2 0.2-0.4 0-0.1 0.1-0.2 0-0.1 0-0.2c0.2-0.4 0.5-0.6 0.9-0.7 0.6-0.3 1.3-0.4 1.9-0.4q0 0 0.1 0 0.3-0.1 0.6-0.1c0-0.3-0.1-0.5-0.3-0.7-0.1-0.1-0.1-0.3 0-0.4q0.1-0.4 0.4-0.6c0.9-0.4 2.3-0.5 3.1 0.2z"/><path class="a" d="m2.8 6.9q0.2 0 0.5 0.1 1.1 0.2 2.3 0.2 0.1 0 0.2 0.1 0.9 0 1.9 0 0.2 0 0.5 0 1.4 0 2.8-0.1 0.1 0 0.3 0 0.7-0.1 1.5-0.2 0.1 0 0.2-0.1 0 0 0 0 0.2 0 0.3 0 0 0.5-0.1 1 0 0.1 0 0.2 0 0.1 0 0.3-0.1 0.3-0.1 0.6 0 0.1 0 0.3 0 0.1 0 0.2-0.1 0.5-0.1 1-0.1 0.2-0.1 0.4 0 0.4-0.1 0.8 0 0 0 0.1c-0.1 0.8-0.1 0.8-0.2 0.9-0.2 0.2-0.4 0.3-0.7 0.3q0 0 0 0.1c-0.5 0.1-1 0.2-1.5 0.2-0.1 0.1-0.1 0.1-0.1 0.1-1.6 0.2-3.3 0.1-4.9-0.1q0 0 0 0c-0.6-0.1-1.3-0.2-1.8-0.5 0 0 0 0-0.1-0.1-0.1 0-0.1-0.1-0.2-0.2q0-0.2 0-0.4 0-0.1 0-0.1 0-0.2-0.1-0.4 0-0.5-0.1-1 0-0.2 0-0.3-0.1-0.5-0.1-1-0.1-0.3-0.1-0.6 0-0.6-0.1-1.3 0 0 0 0 0-0.1 0-0.2-0.1-0.2 0-0.3z"/><path class="b" d="m12.4 4.7c0.1 0.1 0.1 0.2 0.2 0.3q0 0 0 0 0.1 0.1 0.1 0.2 0 0.1 0.1 0.2 0 0.1 0 0.1 0.1 0.3 0.2 0.5c0.1 0.1 0.1 0.1 0 0.2q-1.2 0.2-2.5 0.3 0 0-0.1 0-2.3 0.1-4.6 0-0.1 0-0.2 0-0.4-0.1-0.8-0.1 0 0-0.1 0-0.7-0.1-1.3-0.2-0.1 0-0.1 0-0.1 0-0.1 0-0.1 0-0.1 0-0.1 0-0.1 0c0-0.1 0-0.1 0-0.2q0 0 0 0 0-0.1 0.1-0.1 0 0 0-0.1 0 0 0-0.1 0.1-0.1 0.1-0.2 0.1-0.1 0.1-0.2 0.1-0.1 0.1-0.2 0 0 0-0.1 0.1 0 0.1-0.1 0 0 0 0c0-0.1 0-0.1 0.1-0.2q0.1 0 0.2 0 0 0 0.1 0.1 0.1 0 0.2 0c1.3 0.3 2.7 0.3 4 0.3q0.1 0 0.3 0 0.9 0 1.9-0.1 0.2 0 0.4 0 0.5-0.1 1-0.1c0.1 0 0.1 0 0.1-0.1q0.3 0 0.6-0.1z"/><path class="c" d="m6.8 9.1q0 0 0.1 0 0.1 0 0.3 0 0.1 0 0.2 0 0.2 0 0.4 0 0.3 0 0.5 0 0.2 0 0.4 0 0.1 0 0.2 0 0.2 0 0.3 0 0 0 0.1 0c0.1 0 0.3 0 0.4 0.1 0.1 0 0.1 0.1 0.1 0.2q0 0.1 0 0.1 0 0.1 0 0.1 0 0.1 0 0.1 0 0.2 0 0.3 0 0.1 0 0.3 0 0.2 0 0.4 0 0.3 0 0.6 0 0.3 0 0.5 0 0.1 0 0.2 0 0.2 0 0.4 0 0 0 0.1c0 0.1 0 0.2-0.1 0.3-0.1 0.1-0.2 0.1-0.3 0.1q-0.1 0-0.1 0c0 0 0 0-0.1 0q0 0-0.1 0-0.1 0-0.3 0-0.1 0-0.2 0.1-0.2 0-0.4 0-0.2 0-0.5 0-0.2 0-0.4 0-0.1 0-0.2 0-0.1 0-0.3 0c0 0 0 0-0.1 0-0.1 0-0.2-0.1-0.4-0.2-0.1-0.1-0.1-0.3-0.1-0.5q0 0 0-0.1 0-0.1 0-0.3 0-0.1 0-0.2 0-0.2 0-0.5 0-0.3 0-0.6 0-0.2 0-0.4 0-0.1 0-0.3 0-0.1 0-0.3 0 0 0-0.1c0-0.2 0-0.2 0.1-0.3 0.2-0.2 0.3-0.1 0.5-0.1z"/><path class="d" d="m7 9.8q1 0 2 0 0 1.2 0 2.3-1 0-2 0 0-1.1 0-2.3z"/><path class="e" d="m6.7 3.8q0.1 0 0.1 0c0.3 0.3 0.7 0.3 1.1 0.3 0.1 0 0.1 0 0.1 0 0.4 0 0.8-0.1 1.1-0.3q0.1 0 0.1 0 0-0.1 0-0.1 0.8 0 1.6 0.1 0 0 0 0.1c0.7 0.1 0.7 0.1 0.9 0.1q0 0.1 0 0.1-0.6 0.1-1.2 0.1c-0.1 0-0.1 0-0.1 0q-1.1 0.1-2.3 0.1c0 0 0 0-0.1 0q-0.8 0-1.7 0 0 0 0 0-0.9-0.1-1.7-0.2 0 0-0.1 0-0.1 0-0.2 0c0-0.1 0-0.1 0.1-0.1q0 0 0.1 0 0 0 0 0 0.1 0 0.1 0 0.1-0.1 0.1-0.1 0.8-0.1 1.5-0.2 0.1 0 0.1 0c0.3 0 0.3 0 0.4 0.1z"/><path class="c" d="m8 10.1q0 0 0.1 0 0.1 0 0.2 0 0 0 0.1 0 0.2 0 0.3 0.2c0.1 0.1 0.1 0.2 0 0.4 0 0.1-0.1 0.1-0.2 0.2q-0.2 0-0.4 0-0.1 0-0.2 0-0.1 0-0.1 0-0.1 0-0.2 0c-0.1 0-0.1 0-0.2-0.1q-0.1-0.2-0.1-0.4 0-0.2 0.2-0.3c0.1 0 0.3 0 0.5 0z"/><path class="c" d="m7.9 11.1q0.1 0 0.2 0 0.1 0 0.2 0c0 0 0 0 0.1 0 0.1 0 0.2 0.1 0.3 0.2q0.1 0.1 0.1 0.3c-0.1 0.1-0.1 0.2-0.2 0.2-0.2 0.1-0.4 0.1-0.5 0.1q-0.1 0-0.2 0c-0.4 0-0.4 0-0.5-0.1-0.1-0.1-0.1-0.2-0.1-0.4 0-0.1 0.1-0.2 0.1-0.2 0.2-0.1 0.4-0.1 0.5-0.1z"/><path class="f" d="m7.2 2.8q0.1 0 0.2 0 0.3 0 0.6 0 0 0 0.1 0 0.2 0 0.3 0 0.1 0 0.3 0 0 0.1-0.1 0.2 0 0 0 0.1 0 0.1 0 0.2c-0.3 0.1-0.8 0.1-1.1 0-0.1 0-0.1 0-0.2 0q0-0.3-0.1-0.5z"/><path class="g" d="m1.9 6.5q0 0.2 0.1 0.5c-0.4 0-0.8 0-1.2-0.2 0.1-0.1 0.1-0.1 0.2-0.2 0.3-0.2 0.6-0.1 0.9-0.1z"/><path class="g" d="m14.1 6.5c0.4 0 0.8 0 1.1 0.2 0 0.1 0 0.1 0 0.1-0.4 0.2-0.7 0.2-1.1 0.2q0-0.3 0-0.5z"/><path class="e" d="m8.8 1.9q0 0 0 0c-0.2 0.1-0.5 0.1-0.8 0.1q-0.1 0-0.1 0c-0.3 0-0.6 0-0.8-0.1q0 0 0 0c0.5-0.2 1.2-0.2 1.7 0z"/><path class="h" d="m4.8 13.9q0.2 0.1 0.4 0.1 0 0.1 0 0.3-0.2 0-0.4 0 0-0.2 0-0.4z"/><path class="i" d="m11.2 14q0 0.2 0 0.3-0.2 0-0.4 0 0-0.1 0-0.2 0.2-0.1 0.4-0.1z"/></svg>